<svg id="图层_1" data-name="图层 1" xmlns="http://www.w3.org/2000/svg" xmlns:xlink="http://www.w3.org/1999/xlink" viewBox="0 0 25.22 31.77"><defs><style>.cls-1{fill:url(#未命名的渐变_28);}.cls-2{fill:url(#未命名的渐变_28-2);}.cls-3{fill:url(#未命名的渐变_28-3);}.cls-4{fill:url(#未命名的渐变_28-4);}.cls-5{fill:url(#未命名的渐变_28-5);}.cls-6{fill:url(#未命名的渐变_28-6);}.cls-7{fill:url(#未命名的渐变_28-7);}.cls-8{fill:url(#未命名的渐变_28-8);}.cls-9{fill:url(#未命名的渐变_28-9);}.cls-10{fill:url(#未命名的渐变_28-10);}.cls-11{fill:url(#未命名的渐变_28-11);}</style><linearGradient id="未命名的渐变_28" x1="7.02" y1="19.36" x2="25.13" y2="19.36" gradientUnits="userSpaceOnUse"><stop offset="0" stop-color="#ed753e"/><stop offset="1" stop-color="#ecc029"/></linearGradient><linearGradient id="未命名的渐变_28-2" x1="15.36" y1="25.32" x2="23.16" y2="25.32" xlink:href="#未命名的渐变_28"/><linearGradient id="未命名的渐变_28-3" x1="18.57" y1="13.4" x2="25.22" y2="13.4" xlink:href="#未命名的渐变_28"/><linearGradient id="未命名的渐变_28-4" x1="0" y1="30.78" x2="15.84" y2="30.78" xlink:href="#未命名的渐变_28"/><linearGradient id="未命名的渐变_28-5" x1="10.45" y1="7.45" x2="23.76" y2="7.45" xlink:href="#未命名的渐变_28"/><linearGradient id="未命名的渐变_28-6" x1="0" y1="1.49" x2="17.87" y2="1.49" xlink:href="#未命名的渐变_28"/><linearGradient id="未命名的渐变_28-7" x1="0.02" y1="7.45" x2="7.47" y2="7.45" xlink:href="#未命名的渐变_28"/><linearGradient id="未命名的渐变_28-8" x1="0.02" y1="19.36" x2="5.01" y2="19.36" xlink:href="#未命名的渐变_28"/><linearGradient id="未命名的渐变_28-9" x1="0.02" y1="25.32" x2="13.02" y2="25.32" xlink:href="#未命名的渐变_28"/><linearGradient id="未命名的渐变_28-10" x1="0.02" y1="13.4" x2="16.58" y2="13.4" xlink:href="#未命名的渐变_28"/><linearGradient id="未命名的渐变_28-11" x1="23.76" y1="8.93" x2="23.76" y2="8.93" xlink:href="#未命名的渐变_28"/></defs><title>ddmq-logo</title><path class="cls-1" d="M25.13,17.88H8.51a1.48,1.48,0,1,0,0,3h16A16.13,16.13,0,0,0,25.13,17.88Z"/><path class="cls-2" d="M23.16,23.84H16.84a1.48,1.48,0,0,0,0,3h3.84A13.27,13.27,0,0,0,23.16,23.84Z"/><path class="cls-3" d="M24.83,11.92H20.06a1.49,1.49,0,1,0,0,3h5.16A16.93,16.93,0,0,0,24.83,11.92Z"/><path class="cls-4" d="M0,29.79v2H5.55a28.44,28.44,0,0,0,10.29-2Z"/><path class="cls-5" d="M21.71,6H11.93a1.49,1.49,0,0,0,0,3H23.76A13.16,13.16,0,0,0,21.71,6Z"/><path class="cls-6" d="M17.87,3A27.29,27.29,0,0,0,5.55,0H0V3Z"/><path class="cls-7" d="M0,6H6A1.48,1.48,0,0,1,7.47,7.45v0A1.48,1.48,0,0,1,6,8.93H0a0,0,0,0,1,0,0V6A0,0,0,0,1,0,6Z"/><path class="cls-8" d="M0,17.88H3.53A1.48,1.48,0,0,1,5,19.36v0a1.48,1.48,0,0,1-1.48,1.48H.17A.16.16,0,0,1,0,20.69V17.88a0,0,0,0,1,0,0Z"/><path class="cls-9" d="M0,23.84H11.54A1.48,1.48,0,0,1,13,25.32v0a1.48,1.48,0,0,1-1.48,1.48H0a0,0,0,0,1,0,0v-3A0,0,0,0,1,0,23.84Z"/><path class="cls-10" d="M0,11.92H15.1a1.48,1.48,0,0,1,1.48,1.48v0a1.48,1.48,0,0,1-1.48,1.48H0a0,0,0,0,1,0,0v-3A0,0,0,0,1,0,11.92Z"/><path class="cls-11" d="M23.76,8.93"/></svg>